<svg width="14" height="18" viewBox="0 0 14 18" fill="none" xmlns="http://www.w3.org/2000/svg">
<path fill-rule="evenodd" clip-rule="evenodd" d="M4.675 16.34L1.675 14.196C0.854 13.61 0.443 13.316 0.222 12.886C0.00100012 12.456 0 11.95 0 10.942V7.05901C0 6.73701 -3.07336e-08 6.46701 0.00699997 6.23401L6 10.514V17.231C5.643 17.031 5.227 16.734 4.675 16.34ZM8 17.23C8.357 17.03 8.773 16.732 9.325 16.338L12.325 14.195C13.146 13.609 13.557 13.315 13.778 12.885C13.999 12.455 14 11.95 14 10.942V7.05901C14 6.73701 14 6.46701 13.993 6.23401L8 10.514V17.23ZM13.128 4.39301L7 8.77101L0.872 4.39401C1.084 4.22601 1.347 4.03801 1.675 3.80401L4.675 1.66101C5.798 0.859008 6.36 0.458008 7 0.458008C7.64 0.458008 8.202 0.858008 9.325 1.66101L12.325 3.80401C12.654 4.03801 12.916 4.22501 13.128 4.39301Z" fill="#0033FF"/>
</svg>
