<svg width="18" height="22" viewBox="0 0 18 22" fill="none" xmlns="http://www.w3.org/2000/svg">
<path d="M4.5 9C5.69347 9 6.83807 8.52589 7.68198 7.68198C8.52589 6.83807 9 5.69347 9 4.5C9 3.30653 8.52589 2.16193 7.68198 1.31802C6.83807 0.474106 5.69347 0 4.5 0C3.30653 0 2.16193 0.474106 1.31802 1.31802C0.474106 2.16193 0 3.30653 0 4.5C0 5.69347 0.474106 6.83807 1.31802 7.68198C2.16193 8.52589 3.30653 9 4.5 9Z" fill="#FF5314"/>
<path d="M14.5 16C15.4283 16 16.3185 15.6313 16.9749 14.9749C17.6313 14.3185 18 13.4283 18 12.5C18 11.5717 17.6313 10.6815 16.9749 10.0251C16.3185 9.36875 15.4283 9 14.5 9C13.5717 9 12.6815 9.36875 12.0251 10.0251C11.3687 10.6815 11 11.5717 11 12.5C11 13.4283 11.3687 14.3185 12.0251 14.9749C12.6815 15.6313 13.5717 16 14.5 16Z" fill="#FF5314"/>
<path d="M6.5 22C7.16304 22 7.79893 21.7366 8.26777 21.2678C8.73661 20.7989 9 20.163 9 19.5C9 18.837 8.73661 18.2011 8.26777 17.7322C7.79893 17.2634 7.16304 17 6.5 17C5.83696 17 5.20107 17.2634 4.73223 17.7322C4.26339 18.2011 4 18.837 4 19.5C4 20.163 4.26339 20.7989 4.73223 21.2678C5.20107 21.7366 5.83696 22 6.5 22Z" fill="#FF5314"/>
</svg>
