<svg width="64" height="64" viewBox="0 0 64 64" fill="none" xmlns="http://www.w3.org/2000/svg">
<circle cx="32" cy="32" r="32" fill="black"/>
<path d="M39.7063 45.955C38.1138 47.4988 36.375 47.255 34.7013 46.5238C32.93 45.7763 31.305 45.7438 29.4363 46.5238C27.0963 47.5313 25.8613 47.2388 24.4638 45.955C16.5338 37.7813 17.7038 25.3338 26.7063 24.8788C28.9 24.9925 30.4275 26.0813 31.7113 26.1788C33.6288 25.7888 35.465 24.6675 37.5125 24.8138C39.9663 25.0088 41.8188 25.9838 43.0375 27.7388C37.9675 30.7775 39.17 37.4563 43.8175 39.325C42.8913 41.7625 41.6888 44.1838 39.69 45.9713L39.7063 45.955ZM31.5488 24.7813C31.305 21.1575 34.2463 18.1675 37.6263 17.875C38.0975 22.0675 33.8238 25.1875 31.5488 24.7813Z" fill="white"/>
</svg>
