<svg width="15" height="16" viewBox="0 0 15 16" fill="none" xmlns="http://www.w3.org/2000/svg">
<path d="M12.4979 15.3581C11.5287 16.2024 10.4705 16.0691 9.4518 15.6691C8.37381 15.2603 7.38482 15.2425 6.24749 15.6691C4.82335 16.2202 4.07173 16.0602 3.2212 15.3581C-1.60504 10.8875 -0.892975 4.07949 4.586 3.83063C5.92113 3.89284 6.85077 4.48832 7.63207 4.54165C8.79907 4.32834 9.91662 3.71509 11.1627 3.79508C12.6561 3.90173 13.7835 4.435 14.5253 5.39487C11.4397 7.05689 12.1715 10.7098 15 11.7319C14.4363 13.065 13.7044 14.3893 12.488 15.367L12.4979 15.3581ZM7.53317 3.7773C7.38482 1.79533 9.17488 0.15998 11.232 0C11.5188 2.29304 8.91775 3.9995 7.53317 3.7773Z" fill="white"/>
</svg>
