<svg width="15" height="15" viewBox="0 0 15 15" fill="none" xmlns="http://www.w3.org/2000/svg">
<path d="M5.22541 0.493334C3.72667 1.01326 2.43417 2.00009 1.53774 3.30888C0.641311 4.61768 0.188209 6.17944 0.244988 7.76478C0.301766 9.35012 0.865432 10.8755 1.85319 12.1168C2.84095 13.3581 4.20074 14.2499 5.73283 14.6613C6.97493 14.9818 8.27628 14.9959 9.52502 14.7023C10.6562 14.4482 11.7021 13.9047 12.5602 13.125C13.4532 12.2887 14.1015 11.2248 14.4352 10.0476C14.7979 8.76756 14.8624 7.42138 14.6238 6.11247H7.64884V9.00583H11.6883C11.6076 9.4673 11.4346 9.90774 11.1796 10.3008C10.9247 10.6938 10.5931 11.0314 10.2047 11.2933C9.71144 11.6196 9.1554 11.8392 8.57228 11.9379C7.98745 12.0466 7.38758 12.0466 6.80275 11.9379C6.21 11.8153 5.64927 11.5707 5.15627 11.2195C4.36425 10.6589 3.76956 9.86239 3.45705 8.94373C3.13925 8.00786 3.13925 6.99326 3.45705 6.0574C3.6795 5.4014 4.04724 4.80412 4.53283 4.31013C5.08852 3.73444 5.79205 3.32294 6.56621 3.12077C7.34038 2.91859 8.15528 2.93357 8.9215 3.16404C9.52006 3.34778 10.0674 3.66881 10.5199 4.10154C10.9754 3.64841 11.4301 3.19412 11.884 2.73865C12.1184 2.49372 12.3738 2.26052 12.6047 2.00974C11.914 1.36694 11.1032 0.86676 10.2188 0.537866C8.60826 -0.046912 6.84608 -0.0626274 5.22541 0.493334Z" fill="white"/>
<path d="M5.22544 0.493354C6.84598 -0.062985 8.60816 -0.0476834 10.2188 0.536714C11.1033 0.867843 11.9138 1.37043 12.6036 2.01562C12.3692 2.2664 12.1219 2.50078 11.8829 2.74453C11.4282 3.19843 10.9739 3.65078 10.52 4.10156C10.0674 3.66883 9.52009 3.3478 8.92153 3.16406C8.15557 2.93278 7.3407 2.91694 6.56632 3.11829C5.79195 3.31963 5.08799 3.73038 4.53169 4.30546C4.0461 4.79945 3.67836 5.39673 3.45591 6.05273L1.02661 4.17187C1.89615 2.44753 3.40171 1.12854 5.22544 0.493354Z" fill="#E33629"/>
<path d="M0.382126 6.03516C0.512697 5.38804 0.729474 4.76136 1.02666 4.17188L3.45595 6.05742C3.13816 6.99329 3.13816 8.00788 3.45595 8.94375C2.64658 9.56875 1.83681 10.1969 1.02666 10.8281C0.282693 9.34725 0.0557966 7.65996 0.382126 6.03516Z" fill="#F8BD00"/>
<path d="M7.64871 6.11133H14.6237C14.8623 7.42023 14.7978 8.76641 14.435 10.0465C14.1013 11.2236 13.4531 12.2875 12.56 13.1238C11.7761 12.5121 10.9886 11.9051 10.2046 11.2934C10.5933 11.0312 10.925 10.6932 11.1799 10.2998C11.4349 9.90629 11.6077 9.4654 11.6882 9.00352H7.64871C7.64754 8.04023 7.64871 7.07578 7.64871 6.11133Z" fill="#587DBD"/>
<path d="M1.02539 10.8281C1.83555 10.2031 2.64531 9.57498 3.45469 8.94373C3.76782 9.86271 4.36337 10.6592 5.15625 11.2195C5.65079 11.569 6.21273 11.8117 6.80625 11.932C7.39108 12.0408 7.99095 12.0408 8.57578 11.932C9.1589 11.8333 9.71494 11.6138 10.2082 11.2875C10.9922 11.8992 11.7797 12.5062 12.5637 13.1179C11.7057 13.8981 10.6599 14.442 9.52852 14.6965C8.27978 14.99 6.97843 14.9759 5.73633 14.6554C4.75395 14.3931 3.83634 13.9308 3.04102 13.2972C2.19921 12.6289 1.51167 11.7867 1.02539 10.8281Z" fill="#319F43"/>
</svg>
