<svg width="64" height="64" viewBox="0 0 64 64" fill="none" xmlns="http://www.w3.org/2000/svg">
<path d="M63.3776 25.7328H60.8V25.6H32V38.4H50.0848C47.4464 45.8512 40.3568 51.2 32 51.2C21.3968 51.2 12.8 42.6032 12.8 32C12.8 21.3968 21.3968 12.8 32 12.8C36.8944 12.8 41.3472 14.6464 44.7376 17.6624L53.7888 8.6112C48.0736 3.2848 40.4288 0 32 0C14.328 0 0 14.328 0 32C0 49.672 14.328 64 32 64C49.672 64 64 49.672 64 32C64 29.8544 63.7792 27.76 63.3776 25.7328Z" fill="#FFC107"/>
<path d="M3.68945 17.1056L14.2031 24.816C17.0479 17.7728 23.9375 12.8 31.9999 12.8C36.8943 12.8 41.3471 14.6464 44.7375 17.6624L53.7887 8.6112C48.0735 3.2848 40.4287 0 31.9999 0C19.7087 0 9.04945 6.9392 3.68945 17.1056Z" fill="#FF3D00"/>
<path d="M32 64C40.2656 64 47.776 60.8368 53.4544 55.6928L43.5504 47.312C40.2302 49.8385 36.1721 51.2045 32 51.2C23.6768 51.2 16.6096 45.8929 13.9472 38.4865L3.51196 46.5264C8.80796 56.8896 19.5632 64 32 64Z" fill="#4CAF50"/>
<path d="M63.3776 25.733H60.8V25.6002H32V38.4002H50.0848C48.8227 41.9464 46.5494 45.0452 43.5456 47.3138L43.5504 47.3106L53.4544 55.6914C52.7536 56.3282 64 48.0002 64 32.0002C64 29.8546 63.7792 27.7602 63.3776 25.733Z" fill="#1976D2"/>
</svg>
